<?xml version="1.0" encoding="UTF-8" standalone="no"?>
<!DOCTYPE svg PUBLIC "-//W3C//DTD SVG 1.1//EN" "http://www.w3.org/Graphics/SVG/1.1/DTD/svg11.dtd">
<svg width="100%" height="100%" viewBox="0 0 62 48" version="1.1" xmlns="http://www.w3.org/2000/svg" xmlns:xlink="http://www.w3.org/1999/xlink" xml:space="preserve" style="fill-rule:evenodd;clip-rule:evenodd;stroke-linejoin:round;stroke-miterlimit:1.41421;">
    <g transform="matrix(1.42469,0,0,1.42469,-74.7299,-2.18001)">
        <g transform="matrix(1,0,0,1,51.4864,0)">
            <path d="M4.765,8.89C4.765,7.939 4.943,7.035 5.3,6.177C5.657,5.319 6.152,4.568 6.785,3.919C7.419,3.273 8.158,2.751 9.003,2.355C9.848,1.959 10.746,1.761 11.696,1.761C12.118,1.761 12.455,1.88 12.706,2.116C12.957,2.354 13.082,2.645 13.082,2.989C13.082,3.331 12.963,3.622 12.726,3.86C12.488,4.096 12.198,4.215 11.854,4.215C11.22,4.215 10.62,4.34 10.052,4.592C9.484,4.842 8.989,5.18 8.567,5.602C8.144,6.024 7.814,6.52 7.577,7.086C7.339,7.655 7.221,8.257 7.221,8.89L7.221,27.863C7.221,28.496 7.34,29.097 7.577,29.664C7.814,30.232 8.144,30.728 8.567,31.15C8.989,31.572 9.484,31.908 10.052,32.16C10.619,32.41 11.22,32.537 11.854,32.537C12.197,32.537 12.488,32.656 12.726,32.892C12.964,33.13 13.082,33.421 13.082,33.765C13.082,34.107 12.963,34.398 12.726,34.636C12.488,34.872 12.198,34.991 11.854,34.991C10.877,34.991 9.959,34.805 9.102,34.436C8.244,34.067 7.491,33.559 6.844,32.913C6.197,32.265 5.689,31.505 5.319,30.634C4.949,29.763 4.765,28.839 4.765,27.863L4.765,19.625L2.547,19.625C2.204,19.625 1.913,19.506 1.675,19.268C1.438,19.032 1.319,18.741 1.319,18.397C1.319,18.055 1.438,17.764 1.675,17.526C1.913,17.288 2.203,17.169 2.547,17.169L4.765,17.169L4.765,8.89Z" style="fill:rgb(248,93,93);fill-rule:nonzero;"/>
        </g>
        <path d="M68.138,6.948C68.138,6.606 68.256,6.315 68.494,6.077C68.731,5.841 69.021,5.722 69.365,5.722C69.708,5.722 69.999,5.841 70.236,6.077C70.473,6.315 70.592,6.606 70.592,6.948L70.592,13.602C71.199,13.075 71.9,12.653 72.692,12.334C73.484,12.018 74.329,11.859 75.226,11.859C76.203,11.859 77.127,12.045 77.999,12.414C78.87,12.783 79.629,13.293 80.276,13.939C80.922,14.585 81.43,15.345 81.8,16.216C82.169,17.087 82.355,18.011 82.355,18.987L82.355,29.8C82.355,30.144 82.236,30.435 81.999,30.673C81.762,30.909 81.471,31.028 81.128,31.028C80.784,31.028 80.494,30.909 80.256,30.673C80.019,30.435 79.9,30.144 79.9,29.8L79.9,18.989C79.9,18.356 79.775,17.755 79.524,17.188C79.273,16.62 78.936,16.125 78.514,15.702C78.091,15.28 77.596,14.95 77.029,14.712C76.461,14.474 75.86,14.357 75.226,14.357C74.593,14.357 73.998,14.474 73.444,14.712C72.89,14.95 72.401,15.267 71.979,15.663C71.556,16.059 71.226,16.528 70.989,17.069C70.751,17.61 70.619,18.184 70.593,18.792L70.593,29.802C70.593,30.173 70.481,30.47 70.256,30.695C70.031,30.92 69.735,31.031 69.365,31.031C69.021,31.031 68.737,30.912 68.513,30.676C68.288,30.438 68.162,30.147 68.137,29.803L68.137,6.948L68.138,6.948Z" style="fill:rgb(68,68,68);fill-rule:nonzero;"/>
        <g transform="matrix(1,0,0,1,-63.0607,0)">
            <path d="M152.779,8.89C152.779,8.257 152.66,7.656 152.423,7.087C152.185,6.521 151.855,6.024 151.433,5.603C151.01,5.181 150.515,4.843 149.948,4.593C149.38,4.341 148.779,4.216 148.145,4.216C147.802,4.216 147.512,4.097 147.274,3.861C147.037,3.623 146.918,3.332 146.918,2.99C146.918,2.646 147.043,2.355 147.294,2.117C147.545,1.881 147.882,1.762 148.305,1.762C149.255,1.762 150.153,1.959 150.998,2.356C151.843,2.752 152.582,3.274 153.216,3.92C153.85,4.568 154.345,5.32 154.701,6.178C155.057,7.036 155.235,7.94 155.235,8.891L155.235,17.168L157.454,17.168C157.797,17.168 158.088,17.287 158.325,17.525C158.562,17.763 158.681,18.054 158.681,18.396C158.681,18.74 158.562,19.031 158.325,19.267C158.088,19.505 157.797,19.624 157.454,19.624L155.235,19.624L155.235,27.862C155.235,28.839 155.05,29.762 154.681,30.633C154.311,31.504 153.802,32.264 153.156,32.912C152.509,33.558 151.757,34.066 150.898,34.435C150.039,34.804 149.123,34.99 148.145,34.99C147.802,34.99 147.512,34.871 147.274,34.635C147.037,34.397 146.918,34.106 146.918,33.764C146.918,33.42 147.037,33.129 147.274,32.891C147.512,32.655 147.802,32.536 148.145,32.536C148.779,32.536 149.379,32.409 149.948,32.159C150.515,31.907 151.011,31.571 151.433,31.149C151.855,30.727 152.185,30.231 152.423,29.663C152.66,29.097 152.779,28.495 152.779,27.862L152.779,8.89Z" style="fill:rgb(248,93,93);fill-rule:nonzero;"/>
        </g>
    </g>
</svg>
